<svg class="animated" id="freepik_stories-website-designer" xmlns="http://www.w3.org/2000/svg" viewBox="0 0 500 500" version="1.1" xmlns:xlink="http://www.w3.org/1999/xlink" xmlns:svgjs="http://svgjs.com/svgjs"><style>svg#freepik_stories-website-designer:not(.animated) .animable {opacity: 0;}svg#freepik_stories-website-designer.animated #freepik--Text--inject-2 {animation: 6s Infinite  linear floating;animation-delay: 0s;}svg#freepik_stories-website-designer.animated #freepik--Image--inject-2 {animation: 1.5s Infinite  linear floating;animation-delay: 0s;}svg#freepik_stories-website-designer.animated #freepik--Character--inject-2 {animation: 3s Infinite  linear floating;animation-delay: 0s;}            @keyframes floating {                0% {                    opacity: 1;                    transform: translateY(0px);                }                50% {                    transform: translateY(-10px);                }                100% {                    opacity: 1;                    transform: translateY(0px);                }            }        </style><g id="freepik--background-complete--inject-2" class="animable" style="transform-origin: 250px 228.23px;"><rect y="382.4" width="500" height="0.25" style="fill: rgb(235, 235, 235); transform-origin: 250px 382.525px;" id="ell313cjft6" class="animable"></rect><rect x="416.78" y="398.49" width="33.12" height="0.25" style="fill: rgb(235, 235, 235); transform-origin: 433.34px 398.615px;" id="elc9mbykv9xe4" class="animable"></rect><rect x="322.53" y="401.21" width="8.69" height="0.25" style="fill: rgb(235, 235, 235); transform-origin: 326.875px 401.335px;" id="elunf7xbl3hog" class="animable"></rect><rect x="396.59" y="389.21" width="19.19" height="0.25" style="fill: rgb(235, 235, 235); transform-origin: 406.185px 389.335px;" id="elfvx5e3ekqll" class="animable"></rect><rect x="52.46" y="390.89" width="43.19" height="0.25" style="fill: rgb(235, 235, 235); transform-origin: 74.055px 391.015px;" id="elvyd1kpj3wtp" class="animable"></rect><rect x="104.56" y="390.89" width="6.33" height="0.25" style="fill: rgb(235, 235, 235); transform-origin: 107.725px 391.015px;" id="elvxkd1gxl0zj" class="animable"></rect><rect x="131.47" y="395.11" width="93.68" height="0.25" style="fill: rgb(235, 235, 235); transform-origin: 178.31px 395.235px;" id="el6kqvhuiu2rs" class="animable"></rect><path d="M237,337.8H43.91a5.71,5.71,0,0,1-5.7-5.71V60.66A5.71,5.71,0,0,1,43.91,55H237a5.71,5.71,0,0,1,5.71,5.71V332.09A5.71,5.71,0,0,1,237,337.8ZM43.91,55.2a5.46,5.46,0,0,0-5.45,5.46V332.09a5.46,5.46,0,0,0,5.45,5.46H237a5.47,5.47,0,0,0,5.46-5.46V60.66A5.47,5.47,0,0,0,237,55.2Z" style="fill: rgb(235, 235, 235); transform-origin: 140.46px 196.4px;" id="eldc2t9b9lucc" class="animable"></path><path d="M453.31,337.8H260.21a5.72,5.72,0,0,1-5.71-5.71V60.66A5.72,5.72,0,0,1,260.21,55h193.1A5.71,5.71,0,0,1,459,60.66V332.09A5.71,5.71,0,0,1,453.31,337.8ZM260.21,55.2a5.47,5.47,0,0,0-5.46,5.46V332.09a5.47,5.47,0,0,0,5.46,5.46h193.1a5.47,5.47,0,0,0,5.46-5.46V60.66a5.47,5.47,0,0,0-5.46-5.46Z" style="fill: rgb(235, 235, 235); transform-origin: 356.75px 196.4px;" id="el7heducjh6uq" class="animable"></path><path d="M381.31,327.79l-16.29-47s22.6,16.75,22.45-1.83-10.3-4.14-13.82-11,10-6.78,5.27-17.19-18.26,5.59-20.64-3.63-6.19-13.9-16-13.08c0,0-5.32,12.13,1.2,20.89s-16.12,1.74-13.82,10.55,9.86,16.51,13.19,10.3,7.55,5.69,1.86,8.75S352.12,300.92,355,294a73,73,0,0,1,7.4-13.15l15,50.24Z" style="fill: rgb(235, 235, 235); transform-origin: 358.483px 282.529px;" id="elitx9xdnx7c9" class="animable"></path><path d="M398.1,328.2l18.37-30s-18.17,8.17-15.26-4.65,7.75-1.32,11.22-5.54-5.91-6.21-1.05-12.69,11.8,6.62,14.84.61,6.38-8.69,13.07-6.63c0,0,1.84,9.2-4,14.27s10.89,3.64,8,9.39-9.32,9.93-10.68,5.14-6.09,2.79-2.61,5.77-7.62,10.17-8.56,4.93a51.56,51.56,0,0,0-3.13-10.22l-18,32.49Z" style="fill: rgb(230, 230, 230); transform-origin: 420.864px 299.842px;" id="elaucuzswrwp5" class="animable"></path><path d="M385.73,328.49l8.41-48.37s-19.36,19.93-22.17,1.8,9.37-5.69,11.72-12.93-10.86-5-7.88-15.93,18.69,2.54,19.55-6.83,3.83-14.54,13.55-15.29c0,0,7.11,11,2.15,20.55s16-.87,15.15,8.09-7,17.66-11.21,12.14-6.46,6.74-.43,8.82-4.65,17.11-8.57,10.79a71.68,71.68,0,0,0-9.3-11.65l-6.64,51.37Z" style="fill: rgb(245, 245, 245); transform-origin: 398.893px 280.995px;" id="elbc348b6tbnc" class="animable"></path><path d="M375.31,382.87h28.88a3.83,3.83,0,0,0,3.81-3.58l3.06-49.8a3.82,3.82,0,0,0-3.81-4.05h-35a3.82,3.82,0,0,0-3.81,4.05l3.06,49.8A3.82,3.82,0,0,0,375.31,382.87Z" style="fill: rgb(235, 235, 235); transform-origin: 389.75px 354.155px;" id="el3g1o4jdns2w" class="animable"></path><rect x="365.01" y="323.41" width="49.84" height="7.64" rx="3.79" style="fill: rgb(245, 245, 245); transform-origin: 389.93px 327.23px;" id="elgh1xj4fbxh9" class="animable"></rect><g id="elro9r0cmqwip"><rect x="91.7" y="290.69" width="75.81" height="81.59" style="fill: rgb(230, 230, 230); transform-origin: 129.605px 331.485px; transform: rotate(180deg);" class="animable"></rect></g><g id="elykyvgj7kkm"><rect x="80.13" y="284.62" width="9.53" height="98.25" style="fill: rgb(230, 230, 230); transform-origin: 84.895px 333.745px; transform: rotate(180deg);" class="animable"></rect></g><g id="elg0k30s18b2"><rect x="149.23" y="297.12" width="6.21" height="30.49" style="fill: rgb(250, 250, 250); transform-origin: 152.335px 312.365px; transform: rotate(180deg);" class="animable"></rect></g><g id="eltvs1k56a9u"><rect x="123.48" y="297.12" width="6.21" height="30.49" style="fill: rgb(245, 245, 245); transform-origin: 126.585px 312.365px; transform: rotate(180deg);" class="animable"></rect></g><g id="el09ya2qcxv9c7"><rect x="143.02" y="299.26" width="6.21" height="28.35" style="fill: rgb(245, 245, 245); transform-origin: 146.125px 313.435px; transform: rotate(180deg);" class="animable"></rect></g><g id="eldwppg8ttv5"><rect x="129.69" y="299.26" width="6.21" height="28.35" style="fill: rgb(250, 250, 250); transform-origin: 132.795px 313.435px; transform: rotate(180deg);" class="animable"></rect></g><g id="elj031bnpcfj8"><rect x="135.9" y="297.12" width="4.01" height="30.49" style="fill: rgb(235, 235, 235); transform-origin: 137.905px 312.365px; transform: rotate(180deg);" class="animable"></rect></g><g id="elyrpp2vs2j3k"><rect x="139.91" y="299.26" width="3.11" height="28.35" style="fill: rgb(250, 250, 250); transform-origin: 141.465px 313.435px; transform: rotate(180deg);" class="animable"></rect></g><g id="el5xw5xa81eq6"><rect x="117.26" y="297.12" width="6.21" height="30.49" style="fill: rgb(235, 235, 235); transform-origin: 120.365px 312.365px; transform: rotate(180deg);" class="animable"></rect></g><g id="eleh6rs5uelo8"><rect x="111.05" y="299.26" width="6.21" height="28.35" style="fill: rgb(230, 230, 230); transform-origin: 114.155px 313.435px; transform: rotate(180deg);" class="animable"></rect></g><g id="eltoxxfez2p6a"><rect x="97.72" y="299.26" width="6.21" height="28.35" style="fill: rgb(230, 230, 230); transform-origin: 100.825px 313.435px; transform: rotate(180deg);" class="animable"></rect></g><g id="el2x1xvwg8yol"><rect x="103.93" y="297.12" width="4.01" height="30.49" style="fill: rgb(250, 250, 250); transform-origin: 105.935px 312.365px; transform: rotate(180deg);" class="animable"></rect></g><g id="ele7o28wto4k4"><rect x="107.95" y="299.26" width="3.11" height="28.35" style="fill: rgb(235, 235, 235); transform-origin: 109.505px 313.435px; transform: rotate(180deg);" class="animable"></rect></g><g id="elq81ca9l015"><rect x="94.62" y="297.84" width="3.11" height="29.77" style="fill: rgb(250, 250, 250); transform-origin: 96.175px 312.725px; transform: rotate(180deg);" class="animable"></rect></g><rect x="94.62" y="337.98" width="6.21" height="30.49" style="fill: rgb(250, 250, 250); transform-origin: 97.725px 353.225px;" id="el3ajf88la1m2" class="animable"></rect><rect x="120.37" y="337.98" width="6.21" height="30.49" style="fill: rgb(250, 250, 250); transform-origin: 123.475px 353.225px;" id="elvuoq08pq9l" class="animable"></rect><rect x="100.83" y="340.13" width="6.21" height="28.35" style="fill: rgb(240, 240, 240); transform-origin: 103.935px 354.305px;" id="elkchszjklakk" class="animable"></rect><rect x="114.16" y="340.13" width="6.21" height="28.35" style="fill: rgb(235, 235, 235); transform-origin: 117.265px 354.305px;" id="el0jfe34ga0ty7" class="animable"></rect><rect x="110.14" y="337.98" width="4.01" height="30.49" style="fill: rgb(250, 250, 250); transform-origin: 112.145px 353.225px;" id="else4s5g2q7z" class="animable"></rect><rect x="107.04" y="340.13" width="3.11" height="28.35" style="fill: rgb(245, 245, 245); transform-origin: 108.595px 354.305px;" id="elu6nj6y8sesq" class="animable"></rect><rect x="126.58" y="337.98" width="6.21" height="30.49" style="fill: rgb(235, 235, 235); transform-origin: 129.685px 353.225px;" id="el7y56bizyrod" class="animable"></rect><rect x="132.79" y="340.13" width="6.21" height="28.35" style="fill: rgb(245, 245, 245); transform-origin: 135.895px 354.305px;" id="ela00jrynv5n8" class="animable"></rect><rect x="146.12" y="340.13" width="6.21" height="28.35" style="fill: rgb(230, 230, 230); transform-origin: 149.225px 354.305px;" id="eluusum9zje7" class="animable"></rect><rect x="142.11" y="337.98" width="4.01" height="30.49" style="fill: rgb(250, 250, 250); transform-origin: 144.115px 353.225px;" id="eluaf1jx7wgpi" class="animable"></rect><rect x="155.44" y="337.98" width="4.01" height="30.49" style="fill: rgb(250, 250, 250); transform-origin: 157.445px 353.225px;" id="elz0fizzj99s" class="animable"></rect><rect x="139" y="340.13" width="3.11" height="28.35" style="fill: rgb(235, 235, 235); transform-origin: 140.555px 354.305px;" id="el40odinyv3vw" class="animable"></rect><rect x="152.33" y="338.71" width="3.11" height="29.77" style="fill: rgb(240, 240, 240); transform-origin: 153.885px 353.595px;" id="elrcc0uwt22qc" class="animable"></rect><path d="M89.54,284.62v98.25h5.08v-5.5h75.29V284.62H89.54Zm5.08,48.1h70.5v35.76H94.62Zm0-39.2h70.5v34.12H94.62Z" style="fill: rgb(240, 240, 240); transform-origin: 129.725px 333.745px;" id="ela6qgl1n6sqj" class="animable"></path><rect x="167.63" y="290.69" width="75.81" height="81.59" style="fill: rgb(230, 230, 230); transform-origin: 205.535px 331.485px;" id="elpcay6tjngcm" class="animable"></rect><rect x="230.99" y="376.37" width="9.53" height="6.5" style="fill: rgb(230, 230, 230); transform-origin: 235.755px 379.62px;" id="elctgzodzk735" class="animable"></rect><rect x="170.19" y="297.12" width="6.21" height="30.49" style="fill: rgb(250, 250, 250); transform-origin: 173.295px 312.365px;" id="elnifa3kc31hq" class="animable"></rect><rect x="195.94" y="297.12" width="6.21" height="30.49" style="fill: rgb(245, 245, 245); transform-origin: 199.045px 312.365px;" id="el3bxavr19xki" class="animable"></rect><rect x="176.4" y="299.26" width="6.21" height="28.35" style="fill: rgb(245, 245, 245); transform-origin: 179.505px 313.435px;" id="elrsr44cns0ah" class="animable"></rect><rect x="189.73" y="299.26" width="6.21" height="28.35" style="fill: rgb(250, 250, 250); transform-origin: 192.835px 313.435px;" id="elongxc6d7tfe" class="animable"></rect><rect x="185.71" y="297.12" width="4.01" height="30.49" style="fill: rgb(235, 235, 235); transform-origin: 187.715px 312.365px;" id="el5s3fmr58run" class="animable"></rect><rect x="182.61" y="299.26" width="3.11" height="28.35" style="fill: rgb(250, 250, 250); transform-origin: 184.165px 313.435px;" id="el1lz0g7qs67k" class="animable"></rect><rect x="198.06" y="297.12" width="6.21" height="30.49" style="fill: rgb(235, 235, 235); transform-origin: 201.165px 312.365px;" id="el3mmidvclbhy" class="animable"></rect><rect x="204.27" y="299.26" width="6.21" height="28.35" style="fill: rgb(230, 230, 230); transform-origin: 207.375px 313.435px;" id="elw0zxyj4mx8" class="animable"></rect><rect x="217.6" y="299.26" width="6.21" height="28.35" style="fill: rgb(230, 230, 230); transform-origin: 220.705px 313.435px;" id="el13xlrq9gocr" class="animable"></rect><rect x="213.58" y="297.12" width="4.01" height="30.49" style="fill: rgb(250, 250, 250); transform-origin: 215.585px 312.365px;" id="el4b147j1kfsc" class="animable"></rect><rect x="210.48" y="299.26" width="3.11" height="28.35" style="fill: rgb(235, 235, 235); transform-origin: 212.035px 313.435px;" id="elj3xbvui80xi" class="animable"></rect><rect x="223.81" y="297.84" width="3.11" height="29.77" style="fill: rgb(245, 245, 245); transform-origin: 225.365px 312.725px;" id="el4ffvrinjijx" class="animable"></rect><g id="eldsdj5ulgf5"><rect x="223.62" y="337.98" width="6.21" height="30.49" style="fill: rgb(250, 250, 250); transform-origin: 226.725px 353.225px; transform: rotate(180deg);" class="animable"></rect></g><g id="elte4cf41fya"><rect x="197.87" y="337.98" width="6.21" height="30.49" style="fill: rgb(250, 250, 250); transform-origin: 200.975px 353.225px; transform: rotate(180deg);" class="animable"></rect></g><g id="elqx5ygsjje1"><rect x="217.41" y="340.13" width="6.21" height="28.35" style="fill: rgb(245, 245, 245); transform-origin: 220.515px 354.305px; transform: rotate(180deg);" class="animable"></rect></g><g id="el8231w5royra"><rect x="204.08" y="340.13" width="6.21" height="28.35" style="fill: rgb(235, 235, 235); transform-origin: 207.185px 354.305px; transform: rotate(180deg);" class="animable"></rect></g><g id="eluvu7ha0b95"><rect x="210.29" y="337.98" width="4.01" height="30.49" style="fill: rgb(250, 250, 250); transform-origin: 212.295px 353.225px; transform: rotate(180deg);" class="animable"></rect></g><g id="el3efyz46irgs"><rect x="214.3" y="340.13" width="3.11" height="28.35" style="fill: rgb(245, 245, 245); transform-origin: 215.855px 354.305px; transform: rotate(180deg);" class="animable"></rect></g><g id="el8d93cczcfne"><rect x="195.75" y="337.98" width="6.21" height="30.49" style="fill: rgb(235, 235, 235); transform-origin: 198.855px 353.225px; transform: rotate(180deg);" class="animable"></rect></g><g id="ely7xyxhkgerb"><rect x="189.54" y="340.13" width="6.21" height="28.35" style="fill: rgb(245, 245, 245); transform-origin: 192.645px 354.305px; transform: rotate(180deg);" class="animable"></rect></g><g id="elne1epvo5d2l"><rect x="176.21" y="340.13" width="6.21" height="28.35" style="fill: rgb(230, 230, 230); transform-origin: 179.315px 354.305px; transform: rotate(180deg);" class="animable"></rect></g><g id="elvqk51wf9ogd"><rect x="182.42" y="337.98" width="4.01" height="30.49" style="fill: rgb(250, 250, 250); transform-origin: 184.425px 353.225px; transform: rotate(180deg);" class="animable"></rect></g><g id="elti7drtdhmu"><rect x="169.91" y="337.98" width="4.01" height="30.49" style="fill: rgb(250, 250, 250); transform-origin: 171.915px 353.225px; transform: rotate(180deg);" class="animable"></rect></g><g id="eldqwvaipiw1"><rect x="186.43" y="340.13" width="3.11" height="28.35" style="fill: rgb(235, 235, 235); transform-origin: 187.985px 354.305px; transform: rotate(180deg);" class="animable"></rect></g><g id="el4hpjigk97sr"><rect x="173.1" y="338.71" width="3.11" height="29.77" style="fill: rgb(235, 235, 235); transform-origin: 174.655px 353.595px; transform: rotate(180deg);" class="animable"></rect></g><path d="M243.06,284.62H165.23v92.75h75.29v5.5h5.08V284.62Zm-2.54,83.86H170V332.72h70.5Zm0-40.84H170V293.52h70.5Z" style="fill: rgb(240, 240, 240); transform-origin: 205.415px 333.745px;" id="elpzfvwztu5xs" class="animable"></path><g id="elzp4ekjuyz5b"><rect x="90.33" y="93.63" width="143.13" height="147.9" style="fill: rgb(235, 235, 235); transform-origin: 161.895px 167.58px; transform: rotate(180deg);" class="animable"></rect></g><g id="elu0nq554xlg"><rect x="85.33" y="93.63" width="143.13" height="147.9" style="fill: rgb(240, 240, 240); transform-origin: 156.895px 167.58px; transform: rotate(180deg);" class="animable"></rect></g><rect x="89.13" y="97.13" width="135.73" height="140.95" style="fill: rgb(224, 224, 224); transform-origin: 156.995px 167.605px;" id="el0e6kyq3brzol" class="animable"></rect><rect x="92.52" y="97.13" width="132.34" height="140.95" style="fill: rgb(245, 245, 245); transform-origin: 158.69px 167.605px;" id="el16dfb95z89e" class="animable"></rect><g id="el93t281cigys"><rect x="157.32" y="97.13" width="2.69" height="140.95" style="fill: rgb(235, 235, 235); transform-origin: 158.665px 167.605px; transform: rotate(180deg);" class="animable"></rect></g><polygon points="141.9 97.13 104.18 238.08 100.56 238.08 138.28 97.13 141.9 97.13" style="fill: rgb(255, 255, 255); transform-origin: 121.23px 167.605px;" id="eli22tsmo9ow" class="animable"></polygon><g id="ellyd9z6584rd"><rect x="156.17" y="94.96" width="2.3" height="145.83" style="fill: rgb(240, 240, 240); transform-origin: 157.32px 167.875px; transform: rotate(180deg);" class="animable"></rect></g><polygon points="128.21 97.13 92.52 230.52 92.52 157.2 108.59 97.13 128.21 97.13" style="fill: rgb(255, 255, 255); transform-origin: 110.365px 163.825px;" id="el6j26176q7u" class="animable"></polygon><polygon points="224.86 109.92 224.86 123.45 194.18 238.08 190.56 238.08 224.86 109.92" style="fill: rgb(255, 255, 255); transform-origin: 207.71px 174px;" id="elt2uaameahon" class="animable"></polygon><polygon points="224.86 137.24 224.86 210.56 217.5 238.08 197.88 238.08 224.86 137.24" style="fill: rgb(255, 255, 255); transform-origin: 211.37px 187.66px;" id="el1f8fvh1c302" class="animable"></polygon><g id="elu3g8q4zcn7f"><circle cx="368.65" cy="93.65" r="20.27" style="fill: rgb(224, 224, 224); transform-origin: 368.65px 93.65px; transform: rotate(-76.72deg);" class="animable"></circle></g><g id="elreng8nt8pf9"><circle cx="368.65" cy="93.65" r="17.24" style="fill: rgb(240, 240, 240); transform-origin: 368.65px 93.65px; transform: rotate(-76.72deg);" class="animable"></circle></g><polyline points="369.46 105.48 369.46 93.43 377.45 97.94" style="fill: rgb(240, 240, 240); stroke: rgb(224, 224, 224); stroke-linecap: round; stroke-linejoin: round; stroke-width: 2px; transform-origin: 373.455px 99.455px;" id="eldcjco8iu5uk" class="animable"></polyline></g><g id="freepik--Shadow--inject-2" class="animable" style="transform-origin: 250px 416.24px;"><ellipse id="freepik--path--inject-2" cx="250" cy="416.24" rx="193.89" ry="11.32" style="fill: rgb(245, 245, 245); transform-origin: 250px 416.24px;" class="animable"></ellipse></g><g id="freepik--Interface--inject-2" class="animable" style="transform-origin: 294.82px 221.29px;"><rect x="167.79" y="133.07" width="250.02" height="186.73" style="fill: rgb(64, 123, 255); transform-origin: 292.8px 226.435px;" id="el1diu3u22s9x" class="animable"></rect><g id="elzfga3laynpr"><rect x="167.79" y="133.07" width="250.02" height="186.73" style="fill: rgb(255, 255, 255); opacity: 0.8; transform-origin: 292.8px 226.435px;" class="animable"></rect></g><rect x="158.56" y="127.26" width="249.49" height="12.66" style="fill: rgb(64, 123, 255); transform-origin: 283.305px 133.59px;" id="el5zd9kv3iclf" class="animable"></rect><path d="M196.8,134.38H155.66a1.84,1.84,0,0,1-1.85-1.84h0a1.85,1.85,0,0,1,1.85-1.85H196.8a1.85,1.85,0,0,1,1.85,1.85h0A1.84,1.84,0,0,1,196.8,134.38Z" style="fill: rgb(64, 123, 255); transform-origin: 176.23px 132.535px;" id="eldr60c5jmui6" class="animable"></path><g id="ellkus45ema9"><path d="M196.8,134.38H155.66a1.84,1.84,0,0,1-1.85-1.84h0a1.85,1.85,0,0,1,1.85-1.85H196.8a1.85,1.85,0,0,1,1.85,1.85h0A1.84,1.84,0,0,1,196.8,134.38Z" style="fill: rgb(255, 255, 255); opacity: 0.8; transform-origin: 176.23px 132.535px;" class="animable"></path></g><circle cx="375.48" cy="126.08" r="3.3" style="fill: rgb(64, 123, 255); transform-origin: 375.48px 126.08px;" id="el6jqzrpbf0cl" class="animable"></circle><g id="el11fu9jibwuvf"><circle cx="375.48" cy="126.08" r="3.3" style="fill: rgb(255, 255, 255); opacity: 0.8; transform-origin: 375.48px 126.08px;" class="animable"></circle></g><circle cx="386.56" cy="126.08" r="3.3" style="fill: rgb(64, 123, 255); transform-origin: 386.56px 126.08px;" id="el2x220gk1r1g" class="animable"></circle><g id="elsoplwuncplp"><circle cx="386.56" cy="126.08" r="3.3" style="fill: rgb(255, 255, 255); opacity: 0.8; transform-origin: 386.56px 126.08px;" class="animable"></circle></g><circle cx="397.64" cy="126.08" r="3.3" style="fill: rgb(64, 123, 255); transform-origin: 397.64px 126.08px;" id="el5bbq9g4ft6" class="animable"></circle><g id="elvkdavhmjl7"><circle cx="397.64" cy="126.08" r="3.3" style="fill: rgb(255, 255, 255); opacity: 0.8; transform-origin: 397.64px 126.08px;" class="animable"></circle></g><g id="elykbx4143cln"><rect x="316.76" y="141.89" width="54.62" height="88.24" style="fill: rgb(64, 123, 255); transform-origin: 344.07px 186.01px; transform: rotate(90deg);" class="animable"></rect></g><g id="elrfmsf2z8dk"><rect x="316.76" y="141.89" width="54.62" height="88.24" style="fill: rgb(255, 255, 255); opacity: 0.5; transform-origin: 344.07px 186.01px; transform: rotate(90deg);" class="animable"></rect></g><g id="eld97wui9zfps"><rect x="323.23" y="137.42" width="41.67" height="86.24" style="fill: rgb(255, 255, 255); transform-origin: 344.065px 180.54px; transform: rotate(90deg);" class="animable"></rect></g><polygon points="341.65 210.03 347.32 207.35 341.65 204.69 341.65 210.03" style="fill: rgb(255, 255, 255); transform-origin: 344.485px 207.36px;" id="el459m9i6qaj5" class="animable"></polygon><polygon points="361.74 204.69 361.74 207.24 356.33 204.69 356.33 210.03 361.74 207.47 361.74 210.03 362.29 210.03 362.29 204.69 361.74 204.69" style="fill: rgb(255, 255, 255); transform-origin: 359.31px 207.36px;" id="el8gx1ldlng8b" class="animable"></polygon><polygon points="326.38 204.69 325.83 204.69 325.83 210.03 326.38 210.03 326.38 207.47 331.8 210.03 331.8 204.69 326.38 207.24 326.38 204.69" style="fill: rgb(255, 255, 255); transform-origin: 328.815px 207.36px;" id="elvmay8qprkib" class="animable"></polygon><g id="el3wxg5luepvm"><rect x="364.4" y="217.85" width="54.62" height="88.24" style="fill: rgb(64, 123, 255); transform-origin: 391.71px 261.97px; transform: rotate(90deg);" class="animable"></rect></g><g id="elqxg9xg5x419"><rect x="364.4" y="217.85" width="54.62" height="88.24" style="fill: rgb(255, 255, 255); opacity: 0.5; transform-origin: 391.71px 261.97px; transform: rotate(90deg);" class="animable"></rect></g><polygon points="390.74 261.97 348.58 236.25 348.58 287.69 390.74 261.97" style="fill: rgb(255, 255, 255); transform-origin: 369.66px 261.97px;" id="elwh78b0hmksm" class="animable"></polygon><polygon points="433.86 235.66 349.54 235.66 391.7 261.38 433.86 235.66" style="fill: rgb(255, 255, 255); transform-origin: 391.7px 248.52px;" id="elusprxyz2qho" class="animable"></polygon><polygon points="391.7 262.55 349.54 288.27 433.86 288.27 391.7 262.55" style="fill: rgb(255, 255, 255); transform-origin: 391.7px 275.41px;" id="el7pvxejblhcd" class="animable"></polygon><polygon points="392.66 261.97 434.82 287.69 434.82 236.25 392.66 261.97" style="fill: rgb(255, 255, 255); transform-origin: 413.74px 261.97px;" id="elb39gqoxlyr5" class="animable"></polygon><path d="M429.81,225.64H345.68a2.24,2.24,0,0,0-2.24,2.24h0a2.24,2.24,0,0,0,2.24,2.24h84.13a2.24,2.24,0,0,0,2.24-2.24h0A2.24,2.24,0,0,0,429.81,225.64Z" style="fill: rgb(64, 123, 255); transform-origin: 387.745px 227.88px;" id="elyzxqdwri1nf" class="animable"></path><g id="elflk9tlj0m8"><path d="M429.81,225.64H345.68a2.24,2.24,0,0,0-2.24,2.24h0a2.24,2.24,0,0,0,2.24,2.24h84.13a2.24,2.24,0,0,0,2.24-2.24h0A2.24,2.24,0,0,0,429.81,225.64Z" style="fill: rgb(255, 255, 255); opacity: 0.5; transform-origin: 387.745px 227.88px;" class="animable"></path></g><rect x="292.01" y="150.21" width="88.62" height="4.48" rx="2.24" style="fill: rgb(64, 123, 255); transform-origin: 336.32px 152.45px;" id="elqa5r9i163mj" class="animable"></rect><g id="elup4nlyn89d"><rect x="292.01" y="150.21" width="88.62" height="4.48" rx="2.24" style="fill: rgb(255, 255, 255); opacity: 0.5; transform-origin: 336.32px 152.45px;" class="animable"></rect></g><rect x="154.34" y="150.21" width="88.62" height="4.48" rx="2.24" style="fill: rgb(64, 123, 255); transform-origin: 198.65px 152.45px;" id="elnwfmh7og5a" class="animable"></rect><g id="el6difyine7sg"><rect x="154.34" y="150.21" width="88.62" height="4.48" rx="2.24" style="fill: rgb(255, 255, 255); opacity: 0.5; transform-origin: 198.65px 152.45px;" class="animable"></rect></g><path d="M304.22,261H239.15a1.2,1.2,0,0,0-1.2,1.2h0a1.2,1.2,0,0,0,1.2,1.2h65.07a1.2,1.2,0,0,0,1.2-1.2h0A1.2,1.2,0,0,0,304.22,261Z" style="fill: rgb(64, 123, 255); transform-origin: 271.685px 262.2px;" id="elgk1r1saoj9a" class="animable"></path><g id="elyqe29mojubi"><path d="M304.22,261H239.15a1.2,1.2,0,0,0-1.2,1.2h0a1.2,1.2,0,0,0,1.2,1.2h65.07a1.2,1.2,0,0,0,1.2-1.2h0A1.2,1.2,0,0,0,304.22,261Z" style="fill: rgb(255, 255, 255); opacity: 0.5; transform-origin: 271.685px 262.2px;" class="animable"></path></g><path d="M304.22,266.75H239.15A1.2,1.2,0,0,0,238,268h0a1.19,1.19,0,0,0,1.2,1.2h65.07a1.2,1.2,0,0,0,1.2-1.2h0A1.2,1.2,0,0,0,304.22,266.75Z" style="fill: rgb(64, 123, 255); transform-origin: 271.735px 267.974px;" id="el3yo1gs3reho" class="animable"></path><g id="el92yz2r89th"><path d="M304.22,266.75H239.15A1.2,1.2,0,0,0,238,268h0a1.19,1.19,0,0,0,1.2,1.2h65.07a1.2,1.2,0,0,0,1.2-1.2h0A1.2,1.2,0,0,0,304.22,266.75Z" style="fill: rgb(255, 255, 255); opacity: 0.5; transform-origin: 271.735px 267.974px;" class="animable"></path></g><path d="M304.22,272.55H239.15a1.2,1.2,0,0,0-1.2,1.21h0a1.2,1.2,0,0,0,1.2,1.2h65.07a1.2,1.2,0,0,0,1.2-1.2h0A1.21,1.21,0,0,0,304.22,272.55Z" style="fill: rgb(64, 123, 255); transform-origin: 271.685px 273.755px;" id="ell4e91tf182" class="animable"></path><g id="eludosoqx7wz"><path d="M304.22,272.55H239.15a1.2,1.2,0,0,0-1.2,1.21h0a1.2,1.2,0,0,0,1.2,1.2h65.07a1.2,1.2,0,0,0,1.2-1.2h0A1.21,1.21,0,0,0,304.22,272.55Z" style="fill: rgb(255, 255, 255); opacity: 0.5; transform-origin: 271.685px 273.755px;" class="animable"></path></g><path d="M304.22,278.36H239.15a1.19,1.19,0,0,0-1.2,1.2h0a1.2,1.2,0,0,0,1.2,1.2h65.07a1.2,1.2,0,0,0,1.2-1.2h0A1.2,1.2,0,0,0,304.22,278.36Z" style="fill: rgb(64, 123, 255); transform-origin: 271.685px 279.56px;" id="elpzn08r2mc5p" class="animable"></path><g id="elax810qw5mek"><path d="M304.22,278.36H239.15a1.19,1.19,0,0,0-1.2,1.2h0a1.2,1.2,0,0,0,1.2,1.2h65.07a1.2,1.2,0,0,0,1.2-1.2h0A1.2,1.2,0,0,0,304.22,278.36Z" style="fill: rgb(255, 255, 255); opacity: 0.5; transform-origin: 271.685px 279.56px;" class="animable"></path></g><path d="M304.22,284.16H239.15a1.2,1.2,0,0,0-1.2,1.2h0a1.2,1.2,0,0,0,1.2,1.2h65.07a1.2,1.2,0,0,0,1.2-1.2h0A1.2,1.2,0,0,0,304.22,284.16Z" style="fill: rgb(64, 123, 255); transform-origin: 271.685px 285.36px;" id="el2b8lngjdrv7" class="animable"></path><g id="elalwro040ud"><path d="M304.22,284.16H239.15a1.2,1.2,0,0,0-1.2,1.2h0a1.2,1.2,0,0,0,1.2,1.2h65.07a1.2,1.2,0,0,0,1.2-1.2h0A1.2,1.2,0,0,0,304.22,284.16Z" style="fill: rgb(255, 255, 255); opacity: 0.5; transform-origin: 271.685px 285.36px;" class="animable"></path></g><path d="M304.22,290H239.15a1.2,1.2,0,0,0-1.2,1.2h0a1.19,1.19,0,0,0,1.2,1.2h65.07a1.2,1.2,0,0,0,1.2-1.2h0A1.2,1.2,0,0,0,304.22,290Z" style="fill: rgb(64, 123, 255); transform-origin: 271.685px 291.2px;" id="ele5ljjlacsi7" class="animable"></path><g id="elihif4rco7h"><path d="M304.22,290H239.15a1.2,1.2,0,0,0-1.2,1.2h0a1.19,1.19,0,0,0,1.2,1.2h65.07a1.2,1.2,0,0,0,1.2-1.2h0A1.2,1.2,0,0,0,304.22,290Z" style="fill: rgb(255, 255, 255); opacity: 0.5; transform-origin: 271.685px 291.2px;" class="animable"></path></g><path d="M284.22,295.76H239.15A1.2,1.2,0,0,0,238,297h0a1.19,1.19,0,0,0,1.2,1.2h45.07a1.2,1.2,0,0,0,1.2-1.2h0A1.2,1.2,0,0,0,284.22,295.76Z" style="fill: rgb(64, 123, 255); transform-origin: 261.735px 296.979px;" id="eljs1n3n7k55i" class="animable"></path><g id="elicp2gvuiyq"><path d="M284.22,295.76H239.15A1.2,1.2,0,0,0,238,297h0a1.19,1.19,0,0,0,1.2,1.2h45.07a1.2,1.2,0,0,0,1.2-1.2h0A1.2,1.2,0,0,0,284.22,295.76Z" style="fill: rgb(255, 255, 255); opacity: 0.5; transform-origin: 261.735px 296.979px;" class="animable"></path></g><g id="ele4yc19yc7ke"><rect x="196.7" y="160.07" width="82.49" height="88.24" style="fill: rgb(64, 123, 255); transform-origin: 237.945px 204.19px; transform: rotate(90deg);" class="animable"></rect></g><g id="elt5wgawve7o"><rect x="196.7" y="160.07" width="82.49" height="88.24" style="fill: rgb(255, 255, 255); opacity: 0.5; transform-origin: 237.945px 204.19px; transform: rotate(90deg);" class="animable"></rect></g><g id="elf16flutbiw5"><rect x="197.7" y="161.07" width="80.49" height="86.24" style="fill: rgb(255, 255, 255); transform-origin: 237.945px 204.19px; transform: rotate(90deg);" class="animable"></rect></g><rect x="281.21" y="162.09" width="1.71" height="1.71" style="fill: rgb(64, 123, 255); transform-origin: 282.065px 162.945px;" id="el9esg77feciq" class="animable"></rect><rect x="281.21" y="244.59" width="1.71" height="1.71" style="fill: rgb(64, 123, 255); transform-origin: 282.065px 245.445px;" id="elt67zpxcssk" class="animable"></rect><rect x="192.97" y="162.06" width="1.71" height="1.71" style="fill: rgb(64, 123, 255); transform-origin: 193.825px 162.915px;" id="elz9ddrpngsk" class="animable"></rect><rect x="192.97" y="244.59" width="1.71" height="1.71" style="fill: rgb(64, 123, 255); transform-origin: 193.825px 245.445px;" id="ela8lshy3b76b" class="animable"></rect></g><g id="freepik--Text--inject-2" class="animable" style="transform-origin: 83.235px 176.465px;"><path d="M99.55,192.79H66.91V160.14H99.55Zm-31.64-1H98.55V161.14H67.91Z" style="fill: rgb(64, 123, 255); transform-origin: 83.23px 176.465px;" id="elt4kn0ze5kfl" class="animable"></path><g id="elzcj2l92ddke"><g style="opacity: 0.5; transform-origin: 83.23px 176.465px;" class="animable"><path d="M99.55,192.79H66.91V160.14H99.55Zm-31.64-1H98.55V161.14H67.91Z" style="fill: rgb(255, 255, 255); transform-origin: 83.23px 176.465px;" id="elpjkv2rqk7w" class="animable"></path></g></g><path d="M82.52,171.78H77.25v-1.91H90v1.91H84.7v13.46H82.52Z" style="fill: rgb(64, 123, 255); transform-origin: 83.625px 177.555px;" id="el4qvu2n29c4o" class="animable"></path><rect x="98.07" y="159.65" width="1.98" height="1.98" style="fill: rgb(64, 123, 255); transform-origin: 99.06px 160.64px;" id="el0q41vscsr3v" class="animable"></rect><rect x="98.07" y="191.3" width="1.98" height="1.98" style="fill: rgb(64, 123, 255); transform-origin: 99.06px 192.29px;" id="elsr85egcxenc" class="animable"></rect><rect x="66.42" y="191.3" width="1.98" height="1.98" style="fill: rgb(64, 123, 255); transform-origin: 67.41px 192.29px;" id="eleq4a7sj2b4" class="animable"></rect><rect x="66.42" y="159.65" width="1.98" height="1.98" style="fill: rgb(64, 123, 255); transform-origin: 67.41px 160.64px;" id="elr203em4ddr" class="animable"></rect></g><g id="freepik--Image--inject-2" class="animable animator-active" style="transform-origin: 290.405px 344.455px;"><path d="M306.73,360.78H274.08V328.13h32.65Zm-31.65-1h30.65V329.13H275.08Z" style="fill: rgb(64, 123, 255); transform-origin: 290.405px 344.455px;" id="elz7hml8s0xso" class="animable"></path><g id="elgk5co47lja5"><g style="opacity: 0.5; transform-origin: 290.405px 344.455px;" class="animable"><path d="M306.73,360.78H274.08V328.13h32.65Zm-31.65-1h30.65V329.13H275.08Z" style="fill: rgb(255, 255, 255); transform-origin: 290.405px 344.455px;" id="elxgktn5u73zc" class="animable"></path></g></g><rect x="305.24" y="327.64" width="1.98" height="1.98" style="fill: rgb(64, 123, 255); transform-origin: 306.23px 328.63px;" id="eluddlheoc1v" class="animable"></rect><rect x="305.24" y="359.29" width="1.98" height="1.98" style="fill: rgb(64, 123, 255); transform-origin: 306.23px 360.28px;" id="el85eu3b50ela" class="animable"></rect><rect x="273.59" y="359.29" width="1.98" height="1.98" style="fill: rgb(64, 123, 255); transform-origin: 274.58px 360.28px;" id="el5nhmeg1m35x" class="animable"></rect><rect x="273.59" y="327.64" width="1.98" height="1.98" style="fill: rgb(64, 123, 255); transform-origin: 274.58px 328.63px;" id="elrag38hz4cqp" class="animable"></rect><polygon points="276 349.01 282.52 342.48 288.13 348.09 297.62 338.59 304.81 345.78 304.81 358.9 276 358.9 276 349.01" style="fill: rgb(64, 123, 255); transform-origin: 290.405px 348.745px;" id="el6vy1std7t9j" class="animable"></polygon><path d="M287.47,335.49a2.31,2.31,0,1,1-2.31-2.31A2.32,2.32,0,0,1,287.47,335.49Z" style="fill: rgb(64, 123, 255); transform-origin: 285.16px 335.49px;" id="elj1tn6gkgpiq" class="animable"></path></g><g id="freepik--Character--inject-2" class="animable" style="transform-origin: 146.147px 279.022px;"><g id="freepik--group--inject-2" class="animable" style="transform-origin: 146.147px 279.022px;"><path d="M112.24,190.47s-14.06,17.38-15.62,21.84,3.76,35.47,3.76,35.47-3.49,7.37-1.27,9.06,6,5,7,2.9,1.56-9.58,1.56-9.58l-1.57-1.86s-1.44-31.73-1.27-32.8,14.88-17.23,14.88-17.23Z" style="fill: rgb(159, 91, 83); transform-origin: 108.022px 225.443px;" id="elvcv8zb89oxh" class="animable"></path><polygon points="113.15 185.41 101.54 201.55 109.82 210.63 122.1 205.9 113.15 185.41" style="fill: rgb(64, 123, 255); transform-origin: 111.82px 198.02px;" id="elj0sxdcjjw6" class="animable"></polygon><g id="ele2cw7fg7zif"><polygon points="122.1 205.9 119.68 206.83 112.53 209.58 109.82 210.63 101.54 201.55 113.15 185.41 122.1 205.9" style="fill: rgb(255, 255, 255); opacity: 0.7; transform-origin: 111.82px 198.02px;" class="animable"></polygon></g><g id="elwu5nlmwmlto"><path d="M119.68,206.83l-7.15,2.75a19.87,19.87,0,0,1,3.24-10.8Z" style="opacity: 0.2; isolation: isolate; transform-origin: 116.105px 204.18px;" class="animable"></path></g><polygon points="101.72 199.57 111.42 210.65 109.24 212.33 100.04 201.75 101.72 199.57" style="fill: rgb(64, 123, 255); transform-origin: 105.73px 205.95px;" id="elpkuw36nzd5p" class="animable"></polygon><g id="eljkgew39hxfn"><polygon points="101.72 199.57 111.42 210.65 109.24 212.33 100.04 201.75 101.72 199.57" style="fill: rgb(255, 255, 255); opacity: 0.6; transform-origin: 105.73px 205.95px;" class="animable"></polygon></g><path d="M139.81,158a.36.36,0,0,0,.33-.16,2.85,2.85,0,0,1,2.17-1.31.35.35,0,0,0,0-.7h0a3.49,3.49,0,0,0-2.75,1.62.36.36,0,0,0,.08.49h0A.52.52,0,0,0,139.81,158Z" style="fill: rgb(38, 50, 56); transform-origin: 141.079px 156.916px;" id="ely9fmwmsc2r" class="animable"></path><path d="M141.94,161.13c.07.59.51,1,.9.93s.6-.61.49-1.2-.52-1-.9-.92S141.83,160.54,141.94,161.13Z" style="fill: rgb(38, 50, 56); transform-origin: 142.635px 160.999px;" id="elyemvuwkn3x8" class="animable"></path><path d="M141.75,162.54a21.19,21.19,0,0,0,3.21,4.89,3.46,3.46,0,0,1-2.82.74Z" style="fill: rgb(162, 78, 63); transform-origin: 143.355px 165.382px;" id="elwg72d18hwn8" class="animable"></path><path d="M142.2,170.33a10.52,10.52,0,0,1-.31,1,10.16,10.16,0,0,1-3.63,4.84,10.82,10.82,0,0,1-1.33.82,9.21,9.21,0,0,1-11-1.75c-3.68-3.71-3.58-8-4-15.26a9.73,9.73,0,0,1,.74-4.56,9.94,9.94,0,0,1,13-5.37C142.8,153,143.78,163.8,142.2,170.33Z" style="fill: rgb(159, 91, 83); transform-origin: 132.375px 163.684px;" id="elhx92o2dw6il" class="animable"></path><g id="elnu0d0kg3fyq"><path d="M138.26,176.21a10.82,10.82,0,0,1-1.33.82,9.23,9.23,0,0,1-8,.35,11,11,0,0,1,1.29-2.46A14.34,14.34,0,0,1,138.26,176.21Z" style="opacity: 0.2; isolation: isolate; transform-origin: 133.595px 176.464px;" class="animable"></path></g><path d="M123.65,185.63c3.57,3.24,12.33,2,12.33,2s5.47-1.49,4.32-3.2c-3.22-.53-4.78-2-5.42-4a9.48,9.48,0,0,1-.33-3.68,20.55,20.55,0,0,1,.27-2.05l-10.83-8C125.41,172.05,127.15,181.79,123.65,185.63Z" style="fill: rgb(159, 91, 83); transform-origin: 132.054px 177.282px;" id="eljb4ktp4vqla" class="animable"></path><path d="M133.62,147s1.92-1.17,5.19,1.92c2.76,2.6,0,4.69,1.65,8s-.58,6.63-.58,6.63-1.59,3.43-4.36,3.22c0,0-2.26,2.73-1.9,5.57s-3.71,5.07-9.25,5-3.32-3.53-3.32-3.53a22.86,22.86,0,0,1-3.84-6.21,21.26,21.26,0,0,1-1.58-8.67,11.65,11.65,0,0,1,3.2-8.4C122.53,146.35,131.34,144.26,133.62,147Z" style="fill: rgb(38, 50, 56); transform-origin: 128.345px 161.552px;" id="elnnrlq75pww8" class="animable"></path><path d="M134.13,165.18a4.66,4.66,0,0,0,2.42,3.22c1.47.63,2.45-1.45,2.23-3.64-.2-1.93-1.2-4.65-2.78-4.29S133.62,163.23,134.13,165.18Z" style="fill: rgb(159, 91, 83); transform-origin: 136.394px 164.476px;" id="elxphs5rgmsnl" class="animable"></path><path d="M116.48,161.41s-.23-3.6.55-4.07,4.51-1.21,5.13-.65,1.41,3.9,1.41,3.9S119.42,162,116.48,161.41Z" style="fill: rgb(38, 50, 56); transform-origin: 120.009px 159.022px;" id="el4tu5s6u47uf" class="animable"></path><path d="M135.35,142c7-.95,6.33,4.61,1.06,12.92-3.69,5.8-18.11,21.52-23.61,14.11C109.77,164.89,120.71,143.92,135.35,142Z" style="fill: rgb(64, 123, 255); transform-origin: 126.388px 156.436px;" id="el77mnb0tgt85" class="animable"></path><g id="el5p4mvy9nqyg"><path d="M135.35,142c7-.95,6.33,4.61,1.06,12.92-3.69,5.8-18.11,21.52-23.61,14.11C109.77,164.89,120.71,143.92,135.35,142Z" style="fill: rgb(255, 255, 255); opacity: 0.2; transform-origin: 126.388px 156.436px;" class="animable"></path></g><path d="M128.89,156.58c-4.35,5.54-13.19,7.12-13.19,7.12l-4.61-9.49c2.37-7.78,10.68-11.47,10.68-11.47L131.4,146S133.24,151,128.89,156.58Z" style="fill: rgb(64, 123, 255); transform-origin: 121.438px 153.22px;" id="elb7302bc7mv5" class="animable"></path><g id="elqc1bcdxmae"><path d="M118.83,150.51c-4,4-5.24,5.81-7.74,3.7,2.37-7.78,10.68-11.47,10.68-11.47C123.11,143.34,122.88,146.55,118.83,150.51Z" style="fill: rgb(255, 255, 255); opacity: 0.2; transform-origin: 116.797px 148.919px;" class="animable"></path></g><path d="M122.79,184l1.19-4.55s9.49-1.58,15.33.8l1,4.18Z" style="fill: rgb(64, 123, 255); transform-origin: 131.55px 181.683px;" id="elbgwiojf0rp5" class="animable"></path><g id="eld3wd4qzte0i"><path d="M122.79,184l1.19-4.55s9.49-1.58,15.33.8l1,4.18Z" style="fill: rgb(255, 255, 255); opacity: 0.6; transform-origin: 131.55px 181.683px;" class="animable"></path></g><polygon points="151.56 409.22 159.13 410.02 159.52 405.63 160.55 393.69 152.98 392.88 151.83 406.08 151.56 409.22" style="fill: rgb(159, 91, 83); transform-origin: 156.055px 401.45px;" id="eli5ckj2k94w8" class="animable"></polygon><polygon points="113.77 408.26 121.11 408.26 121.17 406.6 121.18 406.39 121.56 395.75 121.57 395.54 121.72 391.46 114.37 391.46 113.77 408.26" style="fill: rgb(159, 91, 83); transform-origin: 117.745px 399.86px;" id="eltixxjl5608" class="animable"></polygon><g id="el4bfinqa3pu3"><polygon points="152.98 392.88 151.83 406.08 159.52 405.63 160.55 393.69 152.98 392.88" style="opacity: 0.2; isolation: isolate; transform-origin: 156.19px 399.48px;" class="animable"></polygon></g><g id="elyuaoa9cnp"><polygon points="113.82 407.33 113.83 407.33 121.17 406.39 121.18 406.39 121.57 396.13 121.56 396.13 114.2 396.71 113.83 407.01 113.82 407.33" style="opacity: 0.2; isolation: isolate; transform-origin: 117.695px 401.73px;" class="animable"></polygon></g><path d="M122.13,407.82h-8.92a.65.65,0,0,0-.63.5l-1.44,6.54a1.08,1.08,0,0,0,.83,1.28,1,1,0,0,0,.24,0c2.89-.05,5-.23,8.61-.23,2.23,0,9,.24,12,.24s3.48-3.05,2.22-3.33c-5.65-1.23-9.91-2.94-11.72-4.56A1.77,1.77,0,0,0,122.13,407.82Z" style="fill: rgb(38, 50, 56); transform-origin: 123.404px 411.985px;" id="elv175vt3lfm" class="animable"></path><path d="M159.94,407.59H151a.63.63,0,0,0-.62.5L149,414.63a1.08,1.08,0,0,0,.83,1.28,1,1,0,0,0,.24,0c2.89,0,5-.22,8.61-.22,2.23,0,9,.23,12,.23s3.49-3,2.23-3.32c-5.66-1.23-9.92-2.94-11.73-4.57A1.81,1.81,0,0,0,159.94,407.59Z" style="fill: rgb(38, 50, 56); transform-origin: 161.268px 411.755px;" id="elokvpcy30zmr" class="animable"></path><path d="M161.25,404.46H150.48s.88-99.65-10.76-133.3c-.82,11.13-1.75,22.67-2.65,32.29-.57,5.95-1.13,11.06-1.66,15-3.39,25.1-11.94,87-11.94,87H112.83s1.26-59.37,2.52-84c1.39-26.78,2-85.63,2.05-90.65h38.95C160.05,251.86,169.56,336.19,161.25,404.46Z" style="fill: rgb(64, 123, 255); transform-origin: 138.695px 318.125px;" id="eltkn9jr87a1b" class="animable"></path><g id="elylmp2xtpb9f"><path d="M139.72,271.12c-.82,11.12-1.75,22.69-2.65,32.3-1.33-13.88-2.95-23.78-2.95-23.78s-1.52-1.34-5.71-8.52,0-20.58,0-20.58C128.28,263,139.72,271.12,139.72,271.12Z" style="opacity: 0.2; isolation: isolate; transform-origin: 133.134px 276.98px;" class="animable"></path></g><polygon points="162.46 401.49 161.93 404.53 149.21 404.53 149.21 401.73 162.46 401.49" style="fill: rgb(64, 123, 255); transform-origin: 155.835px 403.01px;" id="elmkvo42m4dxk" class="animable"></polygon><polygon points="124.69 402.66 123.47 405.46 112.8 405.46 112.1 402.66 124.69 402.66" style="fill: rgb(64, 123, 255); transform-origin: 118.395px 404.06px;" id="eleqbsn697m1a" class="animable"></polygon><path d="M118.82,231.57a1.91,1.91,0,0,1-1.94-2c.15-2.66,0-8.76-1.17-22.64-.58-6.62-1.41-13.83-2.56-21.5,0,0,21.31-5.59,36.08-.92,0,0,6.74,28.83,7.55,44.49a1.91,1.91,0,0,1-1.88,2Z" style="fill: rgb(64, 123, 255); transform-origin: 134.966px 207.11px;" id="elayezmtshwqv" class="animable"></path><g id="eljm9wx3dett"><path d="M118.82,231.57a1.91,1.91,0,0,1-1.94-2c.15-2.66,0-8.76-1.17-22.64-.58-6.62-1.41-13.83-2.56-21.5,0,0,21.31-5.59,36.08-.92,0,0,6.74,28.83,7.55,44.49a1.91,1.91,0,0,1-1.88,2Z" style="fill: rgb(255, 255, 255); opacity: 0.7; transform-origin: 134.966px 207.11px;" class="animable"></path></g><polygon points="131.59 232.21 128.82 194.1 115.57 184.74 117.42 184.08 130.21 192.52 142.14 182.76 144.25 182.96 131.72 194.23 134.56 232.41 131.59 232.21" style="fill: rgb(38, 50, 56); transform-origin: 129.91px 207.585px;" id="elzg90ks0vqlh" class="animable"></polygon><path d="M128.59,193.93l1.38-1.79a.24.24,0,0,1,.36,0l1.53,1.78a.23.23,0,0,1-.17.38h-2.92A.23.23,0,0,1,128.59,193.93Z" style="fill: rgb(255, 255, 255); transform-origin: 130.229px 193.179px;" id="eld3k54iex48" class="animable"></path><g id="elcp1no91tp8n"><path d="M152.3,206.24c-3-2.71-4.57-12.84-4.71-13.24l2.95.88c.51,3.21,1.1,7.23,1.69,11.83h0Z" style="opacity: 0.2; isolation: isolate; transform-origin: 149.945px 199.62px;" class="animable"></path></g><path d="M151.16,195.94s16.14.06,21.31-1.49,15.68-25.71,15.68-25.71l7.81-3.81s-1.76-6-4.1-6.22-7.17,5.77-7.68,7.08-14,18.78-14.72,19.72-20.23-1-20.23-1Z" style="fill: rgb(159, 91, 83); transform-origin: 172.595px 177.322px;" id="eltccp2hsxu7b" class="animable"></path><path d="M149.23,184.49a21.44,21.44,0,0,0-1.42,9.15c.4,4.94,4.16,8.9,4.16,8.9l15.43-3.76.29-13.25Z" style="fill: rgb(64, 123, 255); transform-origin: 157.728px 193.515px;" id="elopy236m5xno" class="animable"></path><g id="eljqvj3i2p7i"><path d="M149.23,184.49a21.44,21.44,0,0,0-1.42,9.15c.4,4.94,4.16,8.9,4.16,8.9l15.43-3.76.29-13.25Z" style="fill: rgb(255, 255, 255); opacity: 0.7; transform-origin: 157.728px 193.515px;" class="animable"></path></g><polygon points="166.31 184.84 165.62 199.87 168.05 199.37 168.29 184.84 166.31 184.84" style="fill: rgb(64, 123, 255); transform-origin: 166.955px 192.355px;" id="eldx9rkmk674" class="animable"></polygon><g id="elvmcvdqu2ujs"><polygon points="166.31 184.84 165.62 199.87 168.05 199.37 168.29 184.84 166.31 184.84" style="fill: rgb(255, 255, 255); opacity: 0.6; transform-origin: 166.955px 192.355px;" class="animable"></polygon></g><polygon points="143.16 235.48 156.52 235.46 155.82 232.16 143.16 232.19 143.16 235.48" style="fill: rgb(38, 50, 56); transform-origin: 149.84px 233.82px;" id="elrejl3yx5tvf" class="animable"></polygon><polygon points="124.47 232.22 117.45 232.23 117.35 235.53 124.47 235.51 124.47 232.22" style="fill: rgb(38, 50, 56); transform-origin: 120.91px 233.875px;" id="ellvsjhffvllr" class="animable"></polygon><polygon points="125.86 232.22 125.86 235.51 141.48 235.49 141.48 232.19 125.86 232.22" style="fill: rgb(38, 50, 56); transform-origin: 133.67px 233.85px;" id="elr99k9gwyolb" class="animable"></polygon><g id="eluhwfc1qytn"><polygon points="162.46 401.49 161.93 404.53 149.21 404.53 149.21 401.73 162.46 401.49" style="opacity: 0.2; isolation: isolate; transform-origin: 155.835px 403.01px;" class="animable"></polygon></g><g id="el5eztvo7dzs4"><polygon points="124.69 402.66 123.47 405.46 112.8 405.46 112.1 402.66 124.69 402.66" style="opacity: 0.2; isolation: isolate; transform-origin: 118.395px 404.06px;" class="animable"></polygon></g></g></g><defs>     <filter id="active" height="200%">         <feMorphology in="SourceAlpha" result="DILATED" operator="dilate" radius="2"></feMorphology>                <feFlood flood-color="#32DFEC" flood-opacity="1" result="PINK"></feFlood>        <feComposite in="PINK" in2="DILATED" operator="in" result="OUTLINE"></feComposite>        <feMerge>            <feMergeNode in="OUTLINE"></feMergeNode>            <feMergeNode in="SourceGraphic"></feMergeNode>        </feMerge>    </filter>    <filter id="hover" height="200%">        <feMorphology in="SourceAlpha" result="DILATED" operator="dilate" radius="2"></feMorphology>                <feFlood flood-color="#ff0000" flood-opacity="0.5" result="PINK"></feFlood>        <feComposite in="PINK" in2="DILATED" operator="in" result="OUTLINE"></feComposite>        <feMerge>            <feMergeNode in="OUTLINE"></feMergeNode>            <feMergeNode in="SourceGraphic"></feMergeNode>        </feMerge>            <feColorMatrix type="matrix" values="0   0   0   0   0                0   1   0   0   0                0   0   0   0   0                0   0   0   1   0 "></feColorMatrix>    </filter></defs></svg>